HIERARCHY
ROOT pelvis
{
  OFFSET 0 100 0
  CHANNELS 6 Xposition Yposition Zposition Zrotation Xrotation Yrotation
  JOINT pelvis_right_femur
  {
    OFFSET -10.78128 -3.44521 -0.5502486
    CHANNELS 3 Zrotation Xrotation Yrotation
    JOINT right_femur_tibia
    {
      OFFSET -0.8047443 -44.0398 -0.1307829
      CHANNELS 3 Zrotation Xrotation Yrotation
      JOINT right_tibia_foot
      {
        OFFSET 3.006224 -47.83518 -5
        CHANNELS 3 Zrotation Xrotation Yrotation
        End Site
        {
          OFFSET 0 -5 15
        }
      }
    }
  }
  JOINT pelvis_left_femur
  {
    OFFSET 10.78128 -3.44521 -0.5502486
    CHANNELS 3 Zrotation Xrotation Yrotation
    JOINT left_femur_tibia
    {
      OFFSET 0.8047443 -44.0398 -0.1307829
      CHANNELS 3 Zrotation Xrotation Yrotation
      JOINT left_tibia_foot
      {
        OFFSET -4.370144 -48.10324 -4.275266
        CHANNELS 3 Zrotation Xrotation Yrotation
        End Site
        {
          OFFSET 0 -5 15
        }
      }
    }
  }
  JOINT pelvis_spine1
  {
    OFFSET 0 6.468898 -3.129235
    CHANNELS 3 Zrotation Xrotation Yrotation
    JOINT spine1
    {
      OFFSET 0 23.15396 4.99043
      CHANNELS 3 Zrotation Xrotation Yrotation
      JOINT spine2
      {
        OFFSET 0 20.79997 -5.064912
        CHANNELS 3 Zrotation Xrotation Yrotation
        JOINT neck
        {
          OFFSET 0 14.38658 9.616178
          CHANNELS 3 Zrotation Xrotation Yrotation
          End Site
          {
            OFFSET 0 20 0
          }
        }
      }
      JOINT right_manubrium
      {
        OFFSET -5.722621 16.35077 3.967754
        CHANNELS 3 Zrotation Xrotation Yrotation
        JOINT right_clavicle
        {
          OFFSET -13.16364 1.694482 -4.693211
          CHANNELS 3 Zrotation Xrotation Yrotation
          JOINT right_humerus
          {
            OFFSET -28.5034 -0.3100689 -2.792744
            CHANNELS 3 Zrotation Xrotation Yrotation
            JOINT right_radius
            {
              OFFSET -25.15693 0.02248979 -1.271978
              CHANNELS 3 Zrotation Xrotation Yrotation
              End Site
              {
                OFFSET -15 0 0
              }
            }
          }
        }
      }
      JOINT left_manubrium
      {
        OFFSET 5.722621 16.35077 3.967754
        CHANNELS 3 Zrotation Xrotation Yrotation
        JOINT left_clavicle
        {
          OFFSET 13.16364 1.694482 -4.693211
          CHANNELS 3 Zrotation Xrotation Yrotation
          JOINT left_humerus
          {
            OFFSET 29.39168 -1.063119 -2.237045
            CHANNELS 3 Zrotation Xrotation Yrotation
            JOINT left_radius
            {
              OFFSET 24.59957 -0.9528479 0.9047498
              CHANNELS 3 Zrotation Xrotation Yrotation
              End Site
              {
                OFFSET 15 -0 -0
              }
            }
          }
        }
      }
    }
  }
}
MOTION
Frames: 11
Frame Time: 0.0416666666667
47.05543 107.2744 275.0225 3.067678 -10.49618 -2.108904 -3.026427 12.05876 5.287197 -0 54.35259 -0 6.469844 -7.48073 -4.491012 -6.729717 -6.215768 -10.49904 -0 25.52875 -0 -7.461486 -9.034097 17.26302 -2.566617 -1.662386 7.183665 -2.240744 8.884649 -2.506278 2.030192 23.17929 5.818282 1.089055 -14.88938 8.425507 1.781395 -17.89837 9.924124 85.72059 21.2303 -11.4881 -0 0 20.33137 -24.58447 13.71358 11.86518 4.10916 -12.99743 -3.522652 -90.78346 25.2561 21.29434 0 0 -9.285078 -4.004346 6.215064 17.86857
47.57682 108.9468 280.8535 2.719862 -10.90556 -1.448946 -2.397396 4.746204 4.165695 -0 56.05835 -0 5.635056 -7.725503 -5.644252 -6.729464 -0.2214327 -10.7531 -0 23.59285 -0 -7.320813 -10.35612 16.59459 -2.374462 -0.9963836 5.683538 -1.921173 8.836745 -3.295987 1.824914 23.69017 6.050145 0.7762781 -14.55307 8.77145 1.98487 -16.95667 9.787217 87.25072 21.75509 -13.14912 -0 0 18.32152 -23.61987 13.79088 11.31027 4.141119 -14.08164 -3.919322 -88.56672 25.73635 17.42435 0 0 -11.22363 -3.207766 6.696452 16.93528
48.0281 110.2155 286.2943 2.442303 -10.75642 -0.5540493 -1.914294 -2.357835 3.359326 -0 53.24336 -0 4.794953 -7.645437 -6.518316 -6.484757 5.193171 -11.00071 -0 20.90331 -0 -7.309566 -11.61092 15.76071 -2.228273 -0.6107387 4.181377 -1.518547 8.603338 -4.34873 1.792387 24.06119 6.191973 0.5603455 -14.25066 9.133773 1.677965 -15.91932 9.397356 88.7848 22.14548 -14.93187 -0 0 16.71797 -22.68339 13.74479 10.83806 4.431796 -15.18943 -4.302436 -86.3413 26.07618 13.25064 0 0 -13.63795 -2.344593 7.242078 15.80626
48.37426 110.7726 291.6357 2.353653 -10.23919 0.5835989 -1.818934 -8.879772 2.934513 -0 46.5155 -0 3.876464 -7.370478 -7.228586 -6.193119 9.986764 -11.27034 -0 18.18858 -0 -7.32796 -13.01477 14.81623 -2.293682 -0.4211925 2.867146 -1.065883 8.219593 -5.520367 1.977101 24.25574 6.154665 0.4756929 -14.02872 9.422409 0.9971489 -14.84627 8.840894 90.09681 22.38902 -16.74395 -0 0 15.31737 -21.81303 13.57478 10.37059 4.942329 -16.33189 -4.640068 -84.14009 26.28169 8.974197 0 0 -16.37861 -1.440938 7.844294 14.48932
48.60501 110.5534 297.1709 2.455032 -9.539544 1.64921 -2.208492 -14.43755 2.707402 -0 37.17319 -0 2.802377 -7.296893 -7.883154 -5.985231 14.21017 -11.49282 -0 16.18698 -0 -7.327886 -14.62438 13.8751 -2.572347 -0.3577441 1.891502 -0.6232576 7.751499 -6.556089 2.309079 24.28022 5.936545 0.4930067 -13.95613 9.573302 0.1960493 -13.73934 8.297767 91.13875 22.5396 -18.51529 -0 0 13.83161 -20.96469 13.32332 9.800548 5.584551 -17.49531 -4.856383 -82.04238 26.35327 4.83556 0 0 -19.25717 -0.4807511 8.500273 13.02483
48.71839 109.6593 302.8673 2.661206 -8.823724 2.297571 -2.847788 -18.77502 2.325538 -0 27.12907 -0 1.578843 -7.752187 -8.497509 -5.930391 17.8821 -11.55551 -0 15.32127 -0 -7.342962 -16.30389 13.03366 -2.904461 -0.3431432 1.377233 -0.2342608 7.281128 -7.177486 2.653061 24.18015 5.631583 0.5464081 -14.06296 9.593028 -0.4424254 -12.60085 7.948327 91.99127 22.66201 -20.19562 -0 0 11.99162 -20.02722 13.0417 9.018175 6.202217 -18.67538 -4.880055 -80.17073 26.2938 1.054049 0 0 -22.04715 0.541496 9.183905 11.49258
48.6721 108.3748 308.6442 2.813978 -8.242242 2.413608 -3.113386 -21.92023 1.694286 -0 18.44671 -0 0.2774605 -8.742526 -9.034172 -5.951197 20.97718 -11.42627 -0 15.80263 -0 -7.459447 -17.70786 12.3732 -3.113266 -0.2690465 1.245435 0.09653174 6.879756 -7.335848 2.9057 24.07063 5.329449 0.5863446 -14.29468 9.512645 -0.7470431 -11.59199 7.849232 92.67394 22.81402 -21.63275 -0 0 9.786486 -18.9527 12.76576 8.02729 6.653996 -19.81505 -4.714256 -78.64652 26.14096 -2.116519 0 0 -24.4359 1.576516 9.842471 10.01341
48.40916 107.0515 314.6526 2.723653 -7.835214 2.220325 -2.645675 -23.73801 1.251563 -0 13.03273 -0 -0.9589439 -9.763758 -9.493937 -5.720838 23.42133 -11.27669 -0 17.74342 -0 -7.776383 -18.3554 11.93342 -3.077083 -0.1937858 1.209166 0.4003477 6.582978 -7.244467 3.061058 24.02163 5.050736 0.6079655 -14.60462 9.35936 -0.7402833 -10.78285 7.884856 93.26809 22.9993 -22.73208 -0 0 7.464752 -17.77268 12.51249 6.952809 6.89899 -20.71489 -4.403911 -77.63365 25.98091 -4.361585 0 0 -26.12315 2.539708 10.43283 8.716743
47.89756 105.9695 321.1354 2.340142 -7.656378 2.244657 -1.452336 -23.91806 1.663613 -0 12.04161 -0 -1.990292 -10.01191 -9.709053 -4.953274 25.14381 -11.26716 -0 21.43927 -0 -8.325438 -17.76855 11.80421 -2.76475 -0.3927887 0.9840532 0.6642798 6.396619 -7.172176 3.191056 24.07026 4.761768 0.6465808 -14.95117 9.152218 -0.6187408 -10.13499 7.867508 93.84947 23.17489 -23.44931 -0 0 5.380582 -16.56911 12.27212 5.954443 6.952545 -21.07791 -4.006612 -77.34389 25.93432 -5.379905 0 0 -26.84769 3.339789 10.94088 7.719111
47.19042 105.3672 328.0984 1.706176 -7.712161 2.326479 0.2110812 -22.3708 2.856194 -0 14.25982 -0 -2.845468 -9.524535 -9.611142 -3.899967 25.82681 -11.2551 -0 27.29117 -0 -8.969226 -15.78474 12.2152 -2.21642 -0.8727168 0.5934284 0.8540696 6.356 -7.195769 3.309108 24.24963 4.43572 0.7093735 -15.26218 8.866334 -0.5471328 -9.756822 7.742574 94.26847 23.33638 -23.61885 -0 0 3.902498 -15.47254 12.01396 5.178675 6.868216 -20.77049 -3.563001 -77.88759 26.08003 -5.007901 0 0 -26.43937 3.891025 11.37336 7.11333
46.38192 105.4278 335.3263 1.0003 -8.260124 1.749068 1.779643 -19.28103 4.067775 -0 17.12665 -0 -3.702585 -9.261345 -9.398756 -2.986606 24.7256 -11.07055 -0 35.25091 -0 -9.354455 -13.13489 13.386 -1.598173 -1.201979 0.4461301 0.9588448 6.566664 -7.108493 3.375012 24.57258 4.132988 0.7732134 -15.51633 8.548359 -0.4788003 -9.810259 7.662381 94.26381 23.5261 -23.09434 -0 0 3.192396 -14.59409 11.71644 4.690118 6.591452 -19.95121 -3.172276 -79.18087 26.38846 -3.369699 0 0 -24.875 4.132824 11.74102 6.932615
